<svg id="Camada_1" data-name="Camada 1" xmlns="http://www.w3.org/2000/svg" viewBox="0 0 2400 99.33"><defs><style>.cls-1{fill:#2b2523;}</style></defs><path class="cls-1" d="M-69.76,92.47C-50.08,54.9-14.4,15.22,27.61,21.05,176.11,41.67,239.17,47.57,465,14.11c192-28.44,444.44,64,784,76.45,0,0,306.37,12.44,698.24-44.5,5.47-.79,17.54-4,20.63-4.87,120-35.59,216.83-7.82,293.28-.71,106.66,8.3,142.64-29.82,148.5-29.51,37.11,2,26.55-10,25.77-4.6-.47,3.23-.93,6.46-1.16,9.72L2412.53,323a137.26,137.26,0,0,1-88.33,118.69C2112.07,522,1559.72,730.15,1521,735.89,1473,743,313.89,673.67,306.78,673.67s-384-51.56-389.34-76.45c-4.28-20-24.6-273.67-32.45-373a137.27,137.27,0,0,1,15.25-74.5Z"/></svg>