<svg id="Camada_1" data-name="Camada 1" xmlns="http://www.w3.org/2000/svg" viewBox="0 0 100 100"><defs><style>.cls-1{fill:#f40;}</style></defs><path class="cls-1" d="M32,54.81a32,32,0,0,1,.23,4.89A26.44,26.44,0,0,1,32,64.24c-.16.81-.47,1.21-.92,1.21s-.79-.4-.95-1.21a26.64,26.64,0,0,1-.25-4.56,34.15,34.15,0,0,1,.22-4.75c.15-.91.48-1.36,1-1.36S31.84,54,32,54.81Z"/><path class="cls-1" d="M96.34,37.56c.49-.94-.9-3.28-1.36-5a46,46,0,0,1-5.89,3.16,77.36,77.36,0,0,1-13.29,4.1c-12,2.32-24.67,1.91-36.74,3.39-7.54.86-14.16,3.85-18.84,10.7C17,58.41,23.63,63,25.09,67.2c-6.06,2.61-6.87-3.7-9.56-7.41l-.76.34v7.29H10.3C11.59,61.63,6.56,43.63,14.75,44v9.13l.49.16C32.07,26.06,69.83,45,93.18,28.33,75.27-2,24.11,14,7.19,40.92,1.8,48.28.65,56.91,5.07,65.41c.83,1.12,3.19,7.72,6.28,10.24,22,24.09,59.76,10.91,78-10.87C94.61,59.19,101,45.11,96.34,37.56ZM31.06,67.49a2.87,2.87,0,0,1-2.72-2,15.35,15.35,0,0,1-.87-5.94,20,20,0,0,1,.42-4.46,6.06,6.06,0,0,1,1.23-2.7,2.52,2.52,0,0,1,1.94-.91,2.9,2.9,0,0,1,2.63,2,15.12,15.12,0,0,1,.93,6Q34.62,67.5,31.06,67.49Zm16.18-11.2H45.38V53.65h-2v4.68H45V60.2H43.41v5.17h1.28v1.86H40.11V65.37h1.11V53.65H40.11V51.78h7.13Zm12.08,0H57.45V53.65h-2v4.68h1.61V60.2H55.48v5.17h1.28v1.86H52.18V65.37H53.3V53.65H52.18V51.78h7.14Zm12.05,0H69.51V53.65H67.58v4.68h1.57V60.2H67.58v5.17h1.93V62.49h1.86v4.74H64.26V65.37h1.13V53.65H64.26V51.78h7.11Zm12.52,0H82V53.65H80.09v4.68h1.57V60.2H80.09v5.17H82V62.49h1.87v4.74H76.77V65.37h1.14V53.65H76.77V51.78h7.12Z"/></svg>