<svg id="Camada_1" data-name="Camada 1" xmlns="http://www.w3.org/2000/svg" viewBox="0 0 48 48"><defs><style>.cls-1{fill:#fff;}.cls-2{fill:#ea4411;}.cls-3{fill:#f40;}.cls-4{fill:#c43306;}</style></defs><path class="cls-1" d="M40.28,18.88h0a7.59,7.59,0,0,0-2.91-.38c.37-1.29.65-2,.67-2.06v0a2.91,2.91,0,0,0-3-4L29.28,13a4.77,4.77,0,0,0,.22-2A5.55,5.55,0,0,0,28.17,7.9l0,0a5.52,5.52,0,0,0-1.4-1.12l-.12-.07-.05,0a5.09,5.09,0,0,0-.82-.33l-.24-.07-.14,0h0s0,0,0,0,0-.32,0-.43,0-.42.05-.66V5c0-.46.11-1,.19-1.51a2.28,2.28,0,0,0-4.11-1.67,8.67,8.67,0,0,0-.73,1.24,2.28,2.28,0,0,0-4.07-.78,7.73,7.73,0,0,0-.72,1.24A2.31,2.31,0,0,0,14.58,2a2.27,2.27,0,0,0-2.71.78,8.77,8.77,0,0,0-1.08,2.06v0c-.14.38-.25.74-.33,1a6.15,6.15,0,0,0-.23,1.38v0a5.42,5.42,0,0,0,3.91,5.39l.29.08,0,0s0,0,0,.07l0,.1c-.18.46-.37,1-.54,1.48l-8.35.8a2.91,2.91,0,0,0-2.17,4.46A61.57,61.57,0,0,1,11,44.48a2.91,2.91,0,0,0,3.17,2.62l18.56-1.78a2.91,2.91,0,0,0,2.62-3.17c-.12-1.28-.21-2.58-.26-3.88,4.38-1.75,7.58-4.4,9.1-7.58a9.35,9.35,0,0,0,.28-7.61A6.89,6.89,0,0,0,40.28,18.88Z"/><path class="cls-2" d="M6.85,18.71l27.58-2.64a66.42,66.42,0,0,0-2.7,25.79L14.4,43.53A66.52,66.52,0,0,0,6.85,18.71Z"/><path class="cls-3" d="M6.1,19.62l5.8-.56a17.17,17.17,0,0,1,18.82,17.2c0,2.06.07,4.24.26,6.51L13.65,44.43A66.51,66.51,0,0,0,6.1,19.62Z"/><path class="cls-4" d="M23.1,4.87c0,.27,0,.55-.05.82a4.88,4.88,0,0,0,0,.78,2.33,2.33,0,0,0,1.62,1.94l.18.05.25.07a2.78,2.78,0,0,1,.5.21,2.87,2.87,0,0,1,.81.65,3.11,3.11,0,0,1,.79,1.84,2.7,2.7,0,0,1-.5,1.88c-.36.44-.72.89-1.13,1.32.17-.57.39-1.1.6-1.63a2.31,2.31,0,0,0,.07-1.42,2.66,2.66,0,0,0-.69-1.18A2.11,2.11,0,0,0,25,9.83a1.48,1.48,0,0,0-.29-.12l-.15,0-.24-.06A3.17,3.17,0,0,1,22.09,6.5a4.09,4.09,0,0,1,.16-.92,8.34,8.34,0,0,1,.26-.85,7,7,0,0,1,.8-1.56C23.23,3.75,23.14,4.31,23.1,4.87Z"/><path class="cls-4" d="M17.3,7A4.11,4.11,0,0,1,17.45,6c.08-.29.16-.57.26-.85a7,7,0,0,1,.81-1.56c-.09.58-.17,1.14-.21,1.7a7.52,7.52,0,0,0,0,.82,5,5,0,0,0,0,.78A2.34,2.34,0,0,0,19.9,8.87l.17.05.26.07a3,3,0,0,1,.49.21,3.06,3.06,0,0,1,.82.65,3.21,3.21,0,0,1,.79,1.84,2.76,2.76,0,0,1-.51,1.88c-.36.44-.72.89-1.12,1.31.16-.56.38-1.09.59-1.62a2.31,2.31,0,0,0,.07-1.42,2.64,2.64,0,0,0-.68-1.18,2.11,2.11,0,0,0-.53-.37,1.78,1.78,0,0,0-.29-.12l-.16,0-.24-.06A3.16,3.16,0,0,1,17.3,7Z"/><path class="cls-4" d="M13.51,5.79c0,.27,0,.55,0,.82a4.88,4.88,0,0,0,0,.78A2.33,2.33,0,0,0,15.1,9.33l.17.05.27.07a3,3,0,0,1,.49.21,3.06,3.06,0,0,1,.82.65,3.2,3.2,0,0,1,.78,1.84,2.7,2.7,0,0,1-.5,1.88c-.37.44-.72.89-1.13,1.31.17-.56.38-1.09.6-1.62a2.23,2.23,0,0,0,.06-1.42A2.55,2.55,0,0,0,16,11.12a2.26,2.26,0,0,0-.52-.37,1.88,1.88,0,0,0-.3-.12l-.15,0a1.67,1.67,0,0,1-.24-.06A3.17,3.17,0,0,1,12.5,7.42a4.09,4.09,0,0,1,.16-.92,6.4,6.4,0,0,1,.26-.85,7,7,0,0,1,.8-1.56C13.63,4.67,13.55,5.23,13.51,5.79Z"/><path class="cls-4" d="M33.91,23.14a67.74,67.74,0,0,0-1.19,12.23c4-1.39,7-3.63,8.23-6.21a5.79,5.79,0,0,0,.19-4.8,3.37,3.37,0,0,0-2-2.14c-2.16-.76-5,.83-5,.85A.49.49,0,0,1,33.91,23.14ZM32.47,43,13.9,44.83a.63.63,0,0,1-.68-.57C11.73,28.71,5.35,18.62,5.29,18.52a.62.62,0,0,1,.46-1l29.53-2.83a.62.62,0,0,1,.64.85,43.26,43.26,0,0,0-1.7,6,7.61,7.61,0,0,1,5.3-.59,4.62,4.62,0,0,1,2.77,2.87,7.09,7.09,0,0,1-.21,5.79c-1.42,3-4.83,5.49-9.36,7,0,1.82.12,3.72.31,5.69A.62.62,0,0,1,32.47,43Zm-18.07.49,17.33-1.67a66.42,66.42,0,0,1,2.7-25.79L6.85,18.71A66.52,66.52,0,0,1,14.4,43.53Z"/></svg>